<?xml version="1.0" standalone="no"?>
<!DOCTYPE svg PUBLIC "-//W3C//DTD SVG 20010904//EN"
 "http://www.w3.org/TR/2001/REC-SVG-20010904/DTD/svg10.dtd">
<svg version="1.0" xmlns="http://www.w3.org/2000/svg"
 width="746.000000pt" height="203.000000pt" viewBox="0 0 746.000000 203.000000"
 preserveAspectRatio="xMidYMid meet">

<g transform="translate(0.000000,203.000000) scale(0.100000,-0.100000)"
fill="#000000" stroke="none">
<path d="M1060 1739 c-443 -48 -806 -88 -806 -88 -15 -6 3 -113 92 -534 58
-276 109 -519 115 -539 l10 -38 139 0 c77 0 140 -3 140 -7 0 -3 -14 -66 -32
-138 -17 -73 -28 -140 -25 -149 4 -9 16 -16 27 -16 12 0 150 99 315 225 l294
225 219 0 c186 0 222 2 232 15 20 24 163 1104 149 1121 -6 8 -23 13 -38 13
-14 -1 -388 -41 -831 -90z"/>
<path d="M4700 1020 l0 -461 103 3 102 3 0 30 0 30 -67 3 -68 3 0 394 0 395
70 0 70 0 0 30 0 30 -105 0 -105 0 0 -460z"/>
<path d="M6860 1450 l0 -30 65 0 65 0 0 -395 0 -395 -65 0 -65 0 0 -35 0 -35
100 0 100 0 0 460 0 460 -100 0 -100 0 0 -30z"/>
<path d="M2931 1388 c-76 -51 -76 -53 -76 -311 0 -260 4 -276 75 -320 31 -20
49 -22 170 -22 149 0 180 10 224 68 20 27 21 43 24 258 3 255 -1 278 -62 322
-28 20 -45 22 -176 25 -138 3 -147 2 -179 -20z m316 -62 l28 -24 3 -220 3
-220 -29 -33 -29 -33 -115 1 c-117 1 -150 9 -167 41 -8 14 -17 349 -13 433 1
15 14 38 28 53 26 25 31 26 145 26 110 0 120 -2 146 -24z"/>
<path d="M2382 1380 c-18 -11 -41 -34 -52 -52 -19 -31 -20 -47 -18 -266 l3
-233 41 -39 c49 -46 88 -53 269 -48 l120 3 3 28 3 27 -133 0 c-73 0 -150 5
-170 10 -65 19 -68 29 -68 263 l0 209 29 29 29 29 144 0 c149 0 168 5 168 42
0 17 -13 18 -167 18 -150 0 -172 -2 -201 -20z"/>
<path d="M3520 1069 l0 -331 178 4 c199 3 228 12 267 78 18 32 20 52 20 255 0
248 -4 264 -75 304 -34 19 -54 21 -214 21 l-176 0 0 -331z m352 260 c39 -21
48 -67 48 -254 0 -264 -9 -275 -215 -275 l-115 0 0 270 0 270 131 0 c74 0 139
-5 151 -11z"/>
<path d="M4160 1070 l0 -330 213 2 212 3 3 28 3 27 -180 0 -181 0 0 125 0 125
135 0 135 0 0 30 0 30 -135 0 -135 0 0 115 0 115 168 0 c174 0 192 4 192 42 0
17 -15 18 -215 18 l-215 0 0 -330z"/>
<path d="M5010 1070 l0 -330 35 0 35 0 0 155 0 155 165 0 165 0 0 -155 0 -155
35 0 35 0 0 330 0 330 -35 0 -35 0 0 -145 0 -145 -165 0 -165 0 0 145 0 145
-35 0 -35 0 0 -330z"/>
<path d="M5670 1121 c0 -272 0 -279 23 -311 41 -63 77 -75 212 -75 132 0 166
11 209 68 20 27 21 42 24 313 l3 284 -36 0 -35 0 0 -270 0 -270 -29 -32 -29
-33 -100 0 c-108 0 -142 11 -161 52 -7 15 -11 116 -11 288 l0 265 -35 0 -35 0
0 -279z"/>
<path d="M6330 1069 l0 -331 178 4 c155 3 181 5 211 23 59 35 76 67 79 153 4
90 -15 131 -72 158 l-33 16 36 33 c35 32 36 36 36 102 0 82 -22 126 -77 154
-32 16 -60 19 -198 19 l-160 0 0 -331z m335 247 c30 -30 40 -84 25 -130 -19
-58 -39 -66 -172 -66 l-118 0 0 110 0 110 120 0 c114 0 122 -1 145 -24z m39
-297 c22 -25 26 -41 26 -90 0 -51 -4 -63 -29 -91 l-29 -33 -136 -3 -136 -4 0
126 0 126 139 0 139 0 26 -31z"/>
</g>
</svg>
